<svg xmlns="http://www.w3.org/2000/svg" width="494" height="160" viewBox="0 0 494 160">
<path d="M182 0V824L114 838Q79 846 57.5 863.0Q36 880 36 913V1035H182V1094Q182 1183 210.5 1255.0Q239 1327 292.5 1378.0Q346 1429 423.0 1457.0Q500 1485 598 1485Q636 1485 668.0 1480.5Q700 1476 735 1466L729 1315Q728 1299 721.0 1288.5Q714 1278 702.5 1271.5Q691 1265 678.0 1262.0Q665 1259 652 1259Q611 1259 579.0 1251.0Q547 1243 525.5 1222.5Q504 1202 493.0 1168.5Q482 1135 482 1084V1035H725V823H492V0Z" fill="#ffffff" transform="translate(0.000 132.000) scale(0.070060 -0.062000)"/>
<path d="M583 1053Q701 1053 798.0 1016.0Q895 979 964.5 910.0Q1034 841 1072.5 742.5Q1111 644 1111 521Q1111 397 1072.5 297.5Q1034 198 964.5 128.5Q895 59 798.0 21.5Q701 -16 583 -16Q464 -16 366.5 21.5Q269 59 198.5 128.5Q128 198 89.5 297.5Q51 397 51 521Q51 644 89.5 742.5Q128 841 198.5 910.0Q269 979 366.5 1016.0Q464 1053 583 1053ZM583 214Q690 214 740.5 289.5Q791 365 791 519Q791 673 740.5 748.0Q690 823 583 823Q473 823 422.0 748.0Q371 673 371 519Q371 365 422.0 289.5Q473 214 583 214Z" fill="#ffffff" transform="translate(53.684 132.000) scale(0.070060 -0.062000)"/>
<path d="M867 791Q853 774 840.0 764.0Q827 754 803 754Q780 754 761.5 765.0Q743 776 720.0 789.5Q697 803 666.0 814.0Q635 825 589 825Q532 825 490.5 804.0Q449 783 422.0 744.0Q395 705 382.0 648.5Q369 592 369 521Q369 372 426.5 292.0Q484 212 585 212Q639 212 670.5 225.5Q702 239 724.0 255.5Q746 272 764.5 286.0Q783 300 811 300Q848 300 867 273L957 162Q909 107 856.0 72.5Q803 38 747.5 18.5Q692 -1 636.0 -8.5Q580 -16 527 -16Q432 -16 345.5 20.0Q259 56 193.5 124.5Q128 193 89.5 293.0Q51 393 51 521Q51 633 84.5 730.5Q118 828 183.5 899.5Q249 971 345.5 1012.0Q442 1053 569 1053Q691 1053 783.0 1014.0Q875 975 949 900Z" fill="#ffffff" transform="translate(137.494 132.000) scale(0.070060 -0.062000)"/>
<path d="M1035 1037V0H843Q785 0 767 52L749 112Q719 83 687.0 59.5Q655 36 618.5 19.5Q582 3 539.5 -6.5Q497 -16 447 -16Q362 -16 296.5 13.5Q231 43 186.0 96.0Q141 149 118.0 221.0Q95 293 95 379V1037H405V379Q405 302 440.0 260.0Q475 218 543 218Q594 218 638.5 239.5Q683 261 725 298V1037Z" fill="#ffffff" transform="translate(208.062 132.000) scale(0.070060 -0.062000)"/>
<path d="M764 810Q752 791 738.5 783.0Q725 775 704 775Q682 775 660.0 784.5Q638 794 612.5 805.0Q587 816 555.0 825.5Q523 835 482 835Q423 835 391.5 812.5Q360 790 360 750Q360 721 380.5 702.0Q401 683 435.0 668.5Q469 654 512.0 641.0Q555 628 600.0 612.0Q645 596 688.0 574.5Q731 553 765.0 521.5Q799 490 819.5 445.0Q840 400 840 337Q840 260 812.0 195.0Q784 130 728.5 83.0Q673 36 591.5 10.0Q510 -16 404 -16Q351 -16 298.0 -6.0Q245 4 195.5 21.0Q146 38 104.0 61.5Q62 85 32 112L104 226Q116 246 134.5 257.5Q153 269 182 269Q209 269 230.5 257.0Q252 245 277.0 231.0Q302 217 335.5 205.0Q369 193 420 193Q456 193 481.0 200.5Q506 208 521.0 221.0Q536 234 543.0 250.0Q550 266 550 283Q550 314 529.0 334.0Q508 354 474.0 368.5Q440 383 396.5 395.5Q353 408 308.0 424.0Q263 440 219.5 462.5Q176 485 142.0 519.5Q108 554 87.0 604.0Q66 654 66 725Q66 791 91.5 850.5Q117 910 168.0 955.0Q219 1000 296.0 1026.5Q373 1053 476 1053Q532 1053 584.5 1043.0Q637 1033 683.0 1015.0Q729 997 767.0 972.5Q805 948 834 919Z" fill="#ffffff" transform="translate(290.330 132.000) scale(0.070060 -0.062000)"/>
<g opacity="0.55">
<path d="M204 0V856L98 869Q75 874 60.5 885.5Q46 897 46 919V1000H204V1092Q204 1179 229.0 1247.0Q254 1315 300.5 1362.5Q347 1410 412.5 1434.5Q478 1459 560 1459Q629 1459 687 1439L683 1341Q682 1328 675.0 1321.5Q668 1315 656.5 1312.0Q645 1309 628.5 1308.5Q612 1308 593 1308Q548 1308 511.0 1297.0Q474 1286 448.0 1260.0Q422 1234 408.0 1191.5Q394 1149 394 1086V1000H679V858H400V0Z" fill="#ffffff" transform="translate(355.754 131.000) scale(0.070060 -0.062000)"/>
<path d="M982 1016V0H865Q825 0 813 39L799 141Q766 106 730.0 77.0Q694 48 653.0 27.5Q612 7 566.0 -4.5Q520 -16 467 -16Q383 -16 319.5 12.0Q256 40 213.0 90.5Q170 141 148.0 212.0Q126 283 126 369V1016H322V369Q322 260 372.0 199.5Q422 139 525 139Q600 139 665.0 174.5Q730 210 787 272V1016Z" fill="#ffffff" transform="translate(407.546 131.000) scale(0.070060 -0.062000)"/>
</g>
</svg>
