<svg xmlns="http://www.w3.org/2000/svg" width="491" height="160" viewBox="0 0 491 160">
<path d="M189 0V833L109 847Q78 853 58.5 869.0Q39 885 39 915V1025H189V1093Q189 1181 216.5 1252.5Q244 1324 295.0 1373.5Q346 1423 420.0 1450.0Q494 1477 587 1477Q623 1477 655.5 1472.5Q688 1468 721 1459L715 1323Q713 1292 688.5 1282.5Q664 1273 634 1273Q592 1273 558.5 1264.0Q525 1255 502.0 1233.5Q479 1212 467.0 1175.5Q455 1139 455 1085V1025H711V833H464V0Z" fill="#071025" transform="translate(0.000 132.000) scale(0.070060 -0.062000)"/>
<path d="M579 1047Q695 1047 790.0 1010.0Q885 973 953.0 904.5Q1021 836 1058.0 738.0Q1095 640 1095 517Q1095 394 1058.0 295.5Q1021 197 953.0 128.0Q885 59 790.0 22.0Q695 -15 579 -15Q462 -15 366.5 22.0Q271 59 203.0 128.0Q135 197 97.5 295.5Q60 394 60 517Q60 640 97.5 738.0Q135 836 203.0 904.5Q271 973 366.5 1010.0Q462 1047 579 1047ZM579 192Q697 192 754.0 273.5Q811 355 811 516Q811 676 754.0 757.5Q697 839 579 839Q458 839 401.0 757.5Q344 676 344 516Q344 355 401.0 273.5Q458 192 579 192Z" fill="#071025" transform="translate(52.923 132.000) scale(0.070060 -0.062000)"/>
<path d="M862 801Q850 785 838.0 776.5Q826 768 804 768Q784 768 765.5 779.5Q747 791 723.0 804.5Q699 818 666.0 829.5Q633 841 584 841Q522 841 476.5 818.5Q431 796 401.0 754.0Q371 712 356.5 652.0Q342 592 342 517Q342 359 405.5 275.0Q469 191 579 191Q617 191 644.5 197.5Q672 204 692.5 214.0Q713 224 728.0 236.0Q743 248 756.5 258.0Q770 268 783.5 274.5Q797 281 814 281Q846 281 864 257L943 157Q899 106 849.0 72.5Q799 39 745.5 19.5Q692 0 637.0 -7.5Q582 -15 528 -15Q433 -15 348.0 20.5Q263 56 199.0 124.0Q135 192 97.5 291.0Q60 390 60 517Q60 630 93.0 727.0Q126 824 190.0 895.0Q254 966 348.5 1006.5Q443 1047 567 1047Q685 1047 774.0 1009.0Q863 971 934 899Z" fill="#071025" transform="translate(136.043 132.000) scale(0.070060 -0.062000)"/>
<path d="M1019 1031V0H849Q796 0 781 48L763 120Q732 90 699.0 65.0Q666 40 628.5 22.0Q591 4 547.5 -6.0Q504 -16 453 -16Q369 -16 303.5 13.0Q238 42 194.0 94.0Q150 146 127.0 218.0Q104 290 104 376V1031H380V376Q380 290 419.5 242.5Q459 195 537 195Q595 195 646.0 220.5Q697 246 743 290V1031Z" fill="#071025" transform="translate(206.061 132.000) scale(0.070060 -0.062000)"/>
<path d="M755 819Q744 802 732.5 794.5Q721 787 701 787Q681 787 660.0 797.0Q639 807 613.0 818.5Q587 830 553.5 840.0Q520 850 476 850Q409 850 372.0 822.5Q335 795 335 750Q335 719 356.0 698.0Q377 677 411.5 661.5Q446 646 490.0 632.5Q534 619 580.5 603.0Q627 587 671.0 566.0Q715 545 749.5 513.5Q784 482 805.0 437.5Q826 393 826 330Q826 255 798.5 191.5Q771 128 718.0 82.0Q665 36 586.0 10.0Q507 -16 404 -16Q351 -16 299.0 -6.5Q247 3 200.0 20.5Q153 38 112.0 61.0Q71 84 41 111L105 214Q116 232 132.5 242.0Q149 252 175 252Q200 252 221.0 239.5Q242 227 268.0 212.5Q294 198 329.5 185.5Q365 173 418 173Q458 173 487.0 182.0Q516 191 534.0 206.5Q552 222 560.5 241.5Q569 261 569 282Q569 316 547.5 337.5Q526 359 491.5 375.0Q457 391 412.0 404.0Q367 417 320.5 433.0Q274 449 229.5 471.0Q185 493 150.5 526.5Q116 560 94.5 609.0Q73 658 73 728Q73 792 98.0 849.5Q123 907 173.0 951.0Q223 995 297.5 1021.0Q372 1047 470 1047Q580 1047 670.0 1011.0Q760 975 818 917Z" fill="#071025" transform="translate(287.639 132.000) scale(0.070060 -0.062000)"/>
<path d="M200 0V849L100 863Q75 868 59.5 881.0Q44 894 44 918V1006H200V1092Q200 1179 225.5 1248.0Q251 1317 298.5 1365.0Q346 1413 414.0 1438.5Q482 1464 567 1464Q602 1464 633.5 1459.0Q665 1454 695 1444L691 1336Q689 1309 664.5 1304.0Q640 1299 603 1299Q558 1299 522.0 1288.5Q486 1278 460.5 1253.0Q435 1228 421.5 1187.0Q408 1146 408 1085V1006H687V851H415V0Z" fill="#071025" transform="translate(351.642 131.000) scale(0.070060 -0.062000)"/>
<path d="M991 1020V0H861Q818 0 806 41L790 136Q758 102 722.5 74.0Q687 46 647.0 26.0Q607 6 561.5 -5.0Q516 -16 464 -16Q380 -16 316.0 12.0Q252 40 208.5 91.0Q165 142 143.0 213.5Q121 285 121 371V1020H336V371Q336 268 383.5 211.0Q431 154 528 154Q599 154 660.5 186.5Q722 219 776 276V1020Z" fill="#071025" transform="translate(403.514 131.000) scale(0.070060 -0.062000)"/>
</svg>